<svg width="115" height="27" viewBox="0 0 115 27" fill="none" xmlns="http://www.w3.org/2000/svg">
<path d="M5.856 21.256V5.344H0.216V0.855999H16.656V5.344H11.016V20.2L5.856 21.256ZM22.7164 17.128C23.5004 17.128 24.1324 16.808 24.6124 16.168C25.1084 15.512 25.3564 14.68 25.3564 13.672C25.3564 12.632 25.1084 11.808 24.6124 11.2C24.1324 10.576 23.5004 10.264 22.7164 10.264C21.9324 10.264 21.3004 10.576 20.8204 11.2C20.3404 11.808 20.1004 12.632 20.1004 13.672C20.1004 14.68 20.3404 15.512 20.8204 16.168C21.3004 16.808 21.9324 17.128 22.7164 17.128ZM22.7164 21.376C21.6284 21.376 20.6204 21.2 19.6924 20.848C18.7644 20.512 17.9564 20.016 17.2684 19.36C16.5964 18.704 16.0684 17.904 15.6844 16.96C15.3004 16 15.1084 14.904 15.1084 13.672C15.1084 12.44 15.3004 11.352 15.6844 10.408C16.0684 9.448 16.5964 8.648 17.2684 8.008C17.9564 7.352 18.7644 6.856 19.6924 6.52C20.6204 6.184 21.6284 6.016 22.7164 6.016C23.8044 6.016 24.8124 6.184 25.7404 6.52C26.6844 6.856 27.4924 7.352 28.1644 8.008C28.8524 8.648 29.3884 9.448 29.7724 10.408C30.1564 11.352 30.3484 12.44 30.3484 13.672C30.3484 14.904 30.1564 16 29.7724 16.96C29.3884 17.904 28.8524 18.704 28.1644 19.36C27.4924 20.016 26.6844 20.512 25.7404 20.848C24.8124 21.2 23.8044 21.376 22.7164 21.376ZM34.4263 21.256V5.344H28.7863V0.855999H45.2263V5.344H39.5863V20.2L34.4263 21.256ZM54.4547 21.256V19.408C54.0707 20.112 53.5667 20.616 52.9427 20.92C52.3347 21.224 51.5827 21.376 50.6867 21.376C49.7267 21.376 48.8147 21.2 47.9507 20.848C47.1027 20.512 46.3587 20.016 45.7187 19.36C45.0947 18.704 44.5987 17.904 44.2307 16.96C43.8627 16 43.6787 14.904 43.6787 13.672C43.6787 12.44 43.8627 11.352 44.2307 10.408C44.5987 9.448 45.0947 8.648 45.7187 8.008C46.3587 7.352 47.1027 6.856 47.9507 6.52C48.8147 6.184 49.7267 6.016 50.6867 6.016C52.1907 6.016 53.4467 6.56 54.4547 7.648V6.52H59.4467V20.248L54.4547 21.256ZM51.5507 17.128C51.9347 17.128 52.3027 17.048 52.6547 16.888C53.0067 16.712 53.3107 16.472 53.5667 16.168C53.8387 15.848 54.0547 15.48 54.2147 15.064C54.3747 14.648 54.4547 14.184 54.4547 13.672C54.4547 13.16 54.3747 12.696 54.2147 12.28C54.0547 11.848 53.8387 11.488 53.5667 11.2C53.3107 10.896 53.0067 10.664 52.6547 10.504C52.3027 10.344 51.9347 10.264 51.5507 10.264C51.1667 10.264 50.7987 10.344 50.4467 10.504C50.0947 10.664 49.7827 10.896 49.5107 11.2C49.2547 11.488 49.0467 11.848 48.8867 12.28C48.7427 12.696 48.6707 13.16 48.6707 13.672C48.6707 14.184 48.7427 14.648 48.8867 15.064C49.0467 15.48 49.2547 15.848 49.5107 16.168C49.7827 16.472 50.0947 16.712 50.4467 16.888C50.7987 17.048 51.1667 17.128 51.5507 17.128ZM70.7814 11.272C70.7494 11.064 70.6614 10.896 70.5174 10.768C70.3734 10.64 70.2054 10.536 70.0134 10.456C69.8214 10.376 69.6134 10.32 69.3894 10.288C69.1654 10.256 68.9494 10.24 68.7414 10.24C68.3414 10.24 67.9574 10.288 67.5894 10.384C67.2214 10.464 67.0374 10.6 67.0374 10.792C67.0374 10.984 67.2054 11.136 67.5414 11.248C67.8934 11.36 68.2614 11.48 68.6454 11.608L71.2854 12.424C71.9574 12.648 72.5894 12.88 73.1814 13.12C73.7734 13.36 74.2854 13.64 74.7174 13.96C75.1654 14.264 75.5094 14.624 75.7494 15.04C76.0054 15.456 76.1334 15.944 76.1334 16.504C76.1334 17.224 75.9574 17.88 75.6054 18.472C75.2694 19.064 74.7734 19.568 74.1174 19.984C73.4774 20.4 72.6854 20.72 71.7414 20.944C70.8134 21.168 69.7574 21.28 68.5734 21.28C67.6774 21.28 66.8134 21.168 65.9814 20.944C65.1494 20.736 64.3974 20.424 63.7254 20.008C63.0534 19.592 62.5014 19.088 62.0694 18.496C61.6374 17.888 61.3894 17.192 61.3254 16.408L66.1494 15.712C66.1654 15.968 66.2614 16.184 66.4374 16.36C66.6134 16.52 66.8294 16.656 67.0854 16.768C67.3574 16.864 67.6374 16.936 67.9254 16.984C68.2294 17.016 68.5174 17.032 68.7894 17.032C69.0774 17.032 69.3574 17.016 69.6294 16.984C69.9174 16.936 70.1734 16.888 70.3974 16.84C70.6214 16.776 70.7974 16.712 70.9254 16.648C71.0694 16.568 71.1414 16.488 71.1414 16.408C71.1414 16.312 71.0534 16.224 70.8774 16.144C70.7174 16.048 70.5014 15.96 70.2294 15.88C69.9734 15.784 69.6774 15.688 69.3414 15.592C69.0054 15.496 68.6774 15.392 68.3574 15.28L66.3414 14.632C65.6374 14.408 65.0134 14.168 64.4694 13.912C63.9414 13.656 63.4934 13.368 63.1254 13.048C62.7734 12.712 62.5014 12.328 62.3094 11.896C62.1334 11.448 62.0454 10.928 62.0454 10.336C62.0454 9.6 62.2294 8.96 62.5974 8.416C62.9814 7.856 63.4774 7.4 64.0854 7.048C64.6934 6.696 65.3894 6.432 66.1734 6.256C66.9574 6.08 67.7494 5.992 68.5494 5.992C69.5894 5.992 70.5334 6.112 71.3814 6.352C72.2454 6.576 72.9814 6.896 73.5894 7.312C74.2134 7.712 74.7014 8.208 75.0534 8.8C75.4054 9.376 75.5974 10.008 75.6294 10.696L70.7814 11.272ZM80.4555 21.256V11.296L77.0715 11.608V6.808L80.4555 6.496V0.855999H85.4475V6.04L88.8315 5.704V10.504L85.4475 10.84V20.2L80.4555 21.256ZM91.8426 26.368V21.88C92.2746 21.88 92.6826 21.872 93.0666 21.856C93.4666 21.856 93.8266 21.816 94.1466 21.736C94.4666 21.672 94.7466 21.552 94.9866 21.376C95.2266 21.216 95.4106 20.968 95.5386 20.632L95.6826 20.272H94.5546L89.0826 6.52H94.4586L97.6506 15.352L101.203 6.52H106.579L100.531 20.992C99.8746 22.656 98.9466 23.968 97.7466 24.928C96.5626 25.888 95.0186 26.368 93.1146 26.368H91.8426Z" fill="#10161C"/>
<path d="M109.022 14.608L107.942 0.375999H113.51L112.43 14.2L109.022 14.608ZM110.702 21.784L107.246 18.448L110.702 15.112L114.182 18.448L110.702 21.784Z" fill="#614BED"/>
</svg>
