<svg width="18" height="16" viewBox="0 0 18 16" fill="none" xmlns="http://www.w3.org/2000/svg">
<path d="M2.30279 9.1878L8.25695 14.7811C8.46205 14.9738 8.5646 15.0701 8.68551 15.0938C8.73997 15.1045 8.79598 15.1045 8.85043 15.0938C8.97134 15.0701 9.07389 14.9738 9.27899 14.7811L15.2332 9.18779C16.9084 7.61407 17.1118 5.02435 15.7029 3.20834L15.4379 2.86687C13.7524 0.69441 10.3691 1.05875 9.18475 3.54026C9.01745 3.89079 8.51849 3.89079 8.35119 3.54026C7.16683 1.05875 3.78353 0.694409 2.098 2.86687L1.83307 3.20834C0.424096 5.02435 0.627537 7.61407 2.30279 9.1878Z" fill="#F1351C" stroke="#F1351C" stroke-width="1.71278"/>
</svg>
